<?xml version="1.0" encoding="UTF-8"?>
<svg width="500px" height="400px" viewBox="0 0 500 400" version="1.1" xmlns="http://www.w3.org/2000/svg" xmlns:xlink="http://www.w3.org/1999/xlink">
    <title>AWS Services Cloud</title>
    <defs>
        <linearGradient x1="0%" y1="0%" x2="100%" y2="100%" id="linearGradient-1">
            <stop stop-color="#FF9900" offset="0%"></stop>
            <stop stop-color="#FF9900" stop-opacity="0.5" offset="100%"></stop>
        </linearGradient>
        <linearGradient x1="0%" y1="0%" x2="100%" y2="100%" id="linearGradient-2">
            <stop stop-color="#FFFFFF" offset="0%"></stop>
            <stop stop-color="#FFFFFF" stop-opacity="0.5" offset="100%"></stop>
        </linearGradient>
    </defs>
    <g id="AWS-Services" stroke="none" stroke-width="1" fill="none" fill-rule="evenodd">
        <g id="Cloud-Background" transform="translate(50, 50)">
            <path d="M200,300 C310.457,300 400,232.843 400,150 C400,67.157 310.457,0 200,0 C89.543,0 0,67.157 0,150 C0,232.843 89.543,300 200,300 Z" id="Cloud-Shape" fill="url(#linearGradient-1)" opacity="0.2"></path>
        </g>
        
        <!-- AWS Service Icons - Simplified representations -->
        <!-- Lambda -->
        <g id="Lambda" transform="translate(120, 100)">
            <rect fill="#FF9900" x="0" y="0" width="60" height="60" rx="8"></rect>
            <path d="M15,15 L45,15 L45,45 L15,45 Z" stroke="#FFFFFF" stroke-width="3" fill="none"></path>
            <path d="M20,20 L40,40" stroke="#FFFFFF" stroke-width="3"></path>
            <path d="M20,40 L40,20" stroke="#FFFFFF" stroke-width="3"></path>
        </g>
        
        <!-- S3 -->
        <g id="S3" transform="translate(220, 80)">
            <rect fill="#232F3E" x="0" y="0" width="60" height="60" rx="8"></rect>
            <path d="M30,15 L45,30 L30,45 L15,30 Z" fill="#FF9900"></path>
            <circle cx="30" cy="30" r="8" fill="#FFFFFF"></circle>
        </g>
        
        <!-- EC2 -->
        <g id="EC2" transform="translate(320, 120)">
            <rect fill="#232F3E" x="0" y="0" width="60" height="60" rx="8"></rect>
            <rect x="15" y="15" width="30" height="30" stroke="#FF9900" stroke-width="3" fill="none"></rect>
            <circle cx="30" cy="30" r="5" fill="#FFFFFF"></circle>
        </g>
        
        <!-- DynamoDB -->
        <g id="DynamoDB" transform="translate(180, 180)">
            <rect fill="#232F3E" x="0" y="0" width="60" height="60" rx="8"></rect>
            <path d="M15,20 L45,20 L45,40 L15,40 Z" stroke="#FF9900" stroke-width="3" fill="none"></path>
            <line x1="30" y1="20" x2="30" y2="40" stroke="#FF9900" stroke-width="3"></line>
        </g>
        
        <!-- CloudFront -->
        <g id="CloudFront" transform="translate(280, 200)">
            <rect fill="#232F3E" x="0" y="0" width="60" height="60" rx="8"></rect>
            <circle cx="30" cy="30" r="15" stroke="#FF9900" stroke-width="3" fill="none"></circle>
            <path d="M20,30 L40,30 M30,20 L30,40" stroke="#FFFFFF" stroke-width="2"></path>
        </g>
        
        <!-- Connecting Lines -->
        <g id="Connections" stroke="#FF9900" stroke-width="2" stroke-dasharray="4,4">
            <path d="M150,130 L220,110"></path>
            <path d="M280,110 L320,150"></path>
            <path d="M150,160 L180,180"></path>
            <path d="M240,180 L280,200"></path>
            <path d="M320,180 L310,200"></path>
        </g>
        
        <!-- AWS Logo -->
        <g id="AWS-Logo" transform="translate(200, 270)">
            <rect fill="#232F3E" x="0" y="0" width="100" height="30" rx="4"></rect>
            <text x="50" y="20" font-family="Amazon Ember, Arial" font-size="16" fill="#FFFFFF" text-anchor="middle">AWS</text>
        </g>
    </g>
</svg>
