<?xml version="1.0" encoding="UTF-8"?>
<svg width="40px" height="24px" viewBox="0 0 40 24" version="1.1" xmlns="http://www.w3.org/2000/svg" xmlns:xlink="http://www.w3.org/1999/xlink">
    <title>AWS Logo</title>
    <g stroke="none" stroke-width="1" fill="none" fill-rule="evenodd">
        <g transform="translate(-40.000000, -28.000000)" fill="#FFFFFF">
            <g transform="translate(40.000000, 28.000000)">
                <path d="M11.2066,9.55617 C11.2066,10.2012 11.2376,10.7252 11.0856,11.1872 C10.9646,11.5562 10.7816,11.9252 10.5676,12.2322 C10.5056,12.3222 10.5366,12.4122 10.6266,12.4742 L11.2066,12.9052 C11.2996,12.9672 11.3926,12.9362 11.4546,12.8462 C11.7616,12.4772 12.0066,12.0462 12.1896,11.5252 C12.3726,11.0042 12.4656,10.4182 12.4656,9.7732 L12.4656,8.5972 C12.4656,7.9522 12.3726,7.3352 12.1896,6.8452 C12.0066,6.3242 11.7616,5.8932 11.4546,5.5242 C11.3926,5.4342 11.2996,5.4032 11.2066,5.4652 L10.6266,5.8962 C10.5366,5.9582 10.5056,6.0482 10.5676,6.1382 C10.7816,6.4452 10.9646,6.8142 11.0856,7.1832 C11.2066,7.5832 11.2066,8.1072 11.2066,8.7522 L11.2066,9.55617 Z M19.5276,12.9052 L20.1076,12.4742 C20.1996,12.4122 20.2306,12.3222 20.1686,12.2322 C19.9546,11.9252 19.7716,11.5562 19.6506,11.1872 C19.5276,10.7872 19.5276,10.2632 19.5276,9.6182 L19.5276,8.8142 C19.5276,8.1692 19.5586,7.6452 19.4066,7.1832 C19.2856,6.8142 19.1026,6.4452 18.8886,6.1382 C18.8266,6.0482 18.8576,5.9582 18.9476,5.8962 L19.5276,5.4652 C19.6196,5.4032 19.7096,5.4342 19.7716,5.5242 C20.0786,5.8932 20.3236,6.3242 20.5066,6.8452 C20.6896,7.3662 20.7826,7.9522 20.7826,8.5972 L20.7826,9.7732 C20.7826,10.4182 20.6896,11.0352 20.5066,11.5252 C20.3236,12.0462 20.0786,12.4772 19.7716,12.8462 C19.7096,12.9362 19.6196,12.9672 19.5276,12.9052 L19.5276,12.9052 Z M18.1816,14.0812 C18.1816,14.1742 18.2436,14.2362 18.3366,14.2362 L19.1716,14.2362 C19.2646,14.2362 19.3266,14.1742 19.3266,14.0812 L19.3266,13.2772 C19.3266,13.1842 19.2646,13.1222 19.1716,13.1222 L18.3366,13.1222 C18.2436,13.1222 18.1816,13.1842 18.1816,13.2772 L18.1816,14.0812 Z M16.0296,14.0812 C16.0296,14.1742 16.0916,14.2362 16.1846,14.2362 L17.0196,14.2362 C17.1126,14.2362 17.1746,14.1742 17.1746,14.0812 L17.1746,13.2772 C17.1746,13.1842 17.1126,13.1222 17.0196,13.1222 L16.1846,13.1222 C16.0916,13.1222 16.0296,13.1842 16.0296,13.2772 L16.0296,14.0812 Z M13.8776,14.0812 C13.8776,14.1742 13.9396,14.2362 14.0326,14.2362 L14.8676,14.2362 C14.9606,14.2362 15.0226,14.1742 15.0226,14.0812 L15.0226,13.2772 C15.0226,13.1842 14.9606,13.1222 14.8676,13.1222 L14.0326,13.1222 C13.9396,13.1222 13.8776,13.1842 13.8776,13.2772 L13.8776,14.0812 Z M11.7256,14.0812 C11.7256,14.1742 11.7876,14.2362 11.8806,14.2362 L12.7156,14.2362 C12.8086,14.2362 12.8706,14.1742 12.8706,14.0812 L12.8706,13.2772 C12.8706,13.1842 12.8086,13.1222 12.7156,13.1222 L11.8806,13.1222 C11.7876,13.1222 11.7256,13.1842 11.7256,13.2772 L11.7256,14.0812 Z M15.9986,4.1962 C13.0446,4.1962 10.4126,4.9692 8.3226,6.3242 C8.2296,6.3862 8.2296,6.5072 8.3226,6.5692 L9.0336,7.0932 C9.0956,7.1552 9.1886,7.1552 9.2506,7.0932 C11.0236,5.9582 13.3896,5.3132 15.9986,5.3132 C18.6076,5.3132 20.9736,5.9582 22.7466,7.0932 C22.8086,7.1552 22.9016,7.1552 22.9636,7.0932 L23.6746,6.5692 C23.7676,6.5072 23.7676,6.3862 23.6746,6.3242 C21.5846,4.9692 18.9526,4.1962 15.9986,4.1962 L15.9986,4.1962 Z M15.9986,7.3662 C14.0326,7.3662 12.2286,7.8252 10.7506,8.6292 C10.6576,8.6912 10.6576,8.8122 10.7506,8.8742 L11.4616,9.3982 C11.5236,9.4602 11.6166,9.4602 11.6786,9.3982 C12.8856,8.7842 14.3636,8.4462 15.9986,8.4462 C17.6336,8.4462 19.1116,8.7842 20.3186,9.3982 C20.3806,9.4602 20.4736,9.4602 20.5356,9.3982 L21.2466,8.8742 C21.3396,8.8122 21.3396,8.6912 21.2466,8.6292 C19.7686,7.8252 17.9646,7.3662 15.9986,7.3662 L15.9986,7.3662 Z M15.9986,10.5362 C14.9606,10.5362 14.0016,10.7502 13.1976,11.1492 C13.1046,11.2112 13.1046,11.3322 13.1976,11.3942 L13.9086,11.9182 C13.9706,11.9802 14.0636,11.9802 14.1256,11.9182 C14.6776,11.6732 15.3266,11.5532 15.9986,11.5532 C16.6706,11.5532 17.3196,11.6732 17.8716,11.9182 C17.9336,11.9802 18.0266,11.9802 18.0886,11.9182 L18.7996,11.3942 C18.8926,11.3322 18.8926,11.2112 18.7996,11.1492 C17.9956,10.7502 17.0366,10.5362 15.9986,10.5362 L15.9986,10.5362 Z M28.0626,10.1982 C26.4896,10.1982 25.2206,11.4672 25.2206,13.0402 C25.2206,14.6132 26.4896,15.8822 28.0626,15.8822 C29.6356,15.8822 30.9046,14.6132 30.9046,13.0402 C30.9046,11.4672 29.6356,10.1982 28.0626,10.1982 L28.0626,10.1982 Z M28.0626,14.9272 C27.0246,14.9272 26.1756,14.0782 26.1756,13.0402 C26.1756,12.0022 27.0246,11.1532 28.0626,11.1532 C29.1006,11.1532 29.9496,12.0022 29.9496,13.0402 C29.9496,14.0782 29.1006,14.9272 28.0626,14.9272 L28.0626,14.9272 Z M39.1356,10.1982 C37.5626,10.1982 36.2936,11.4672 36.2936,13.0402 C36.2936,14.6132 37.5626,15.8822 39.1356,15.8822 C40.7086,15.8822 41.9776,14.6132 41.9776,13.0402 C41.9776,11.4672 40.7086,10.1982 39.1356,10.1982 L39.1356,10.1982 Z M39.1356,14.9272 C38.0976,14.9272 37.2486,14.0782 37.2486,13.0402 C37.2486,12.0022 38.0976,11.1532 39.1356,11.1532 C40.1736,11.1532 41.0226,12.0022 41.0226,13.0402 C41.0226,14.0782 40.1736,14.9272 39.1356,14.9272 L39.1356,14.9272 Z M33.5996,10.1982 C32.0266,10.1982 30.7576,11.4672 30.7576,13.0402 C30.7576,14.6132 32.0266,15.8822 33.5996,15.8822 C35.1726,15.8822 36.4416,14.6132 36.4416,13.0402 C36.4416,11.4672 35.1726,10.1982 33.5996,10.1982 L33.5996,10.1982 Z M33.5996,14.9272 C32.5616,14.9272 31.7126,14.0782 31.7126,13.0402 C31.7126,12.0022 32.5616,11.1532 33.5996,11.1532 C34.6376,11.1532 35.4866,12.0022 35.4866,13.0402 C35.4866,14.0782 34.6376,14.9272 33.5996,14.9272 L33.5996,14.9272 Z M5.9876,10.1982 C4.4146,10.1982 3.1456,11.4672 3.1456,13.0402 C3.1456,14.6132 4.4146,15.8822 5.9876,15.8822 C7.5606,15.8822 8.8296,14.6132 8.8296,13.0402 C8.8296,11.4672 7.5606,10.1982 5.9876,10.1982 L5.9876,10.1982 Z M5.9876,14.9272 C4.9496,14.9272 4.1006,14.0782 4.1006,13.0402 C4.1006,12.0022 4.9496,11.1532 5.9876,11.1532 C7.0256,11.1532 7.8746,12.0022 7.8746,13.0402 C7.8746,14.0782 7.0256,14.9272 5.9876,14.9272 L5.9876,14.9272 Z M0.4746,10.1982 C0.2296,10.1982 0.0156,10.4122 0.0156,10.6572 L0.0156,15.4202 C0.0156,15.6652 0.2296,15.8792 0.4746,15.8792 L1.3406,15.8792 C1.5856,15.8792 1.7996,15.6652 1.7996,15.4202 L1.7996,10.6572 C1.7996,10.4122 1.5856,10.1982 1.3406,10.1982 L0.4746,10.1982 Z M22.5636,10.1982 C22.3186,10.1982 22.1046,10.4122 22.1046,10.6572 L22.1046,15.4202 C22.1046,15.6652 22.3186,15.8792 22.5636,15.8792 L23.4296,15.8792 C23.6746,15.8792 23.8886,15.6652 23.8886,15.4202 L23.8886,10.6572 C23.8886,10.4122 23.6746,10.1982 23.4296,10.1982 L22.5636,10.1982 Z"></path>
            </g>
        </g>
    </g>
</svg>
